<svg width="41" height="40" viewBox="0 0 41 40" fill="none" xmlns="http://www.w3.org/2000/svg">
<path d="M38.1834 36.3627H1.8187C0.813989 36.3627 0 37.1767 0 38.1822C0 39.1861 0.813989 40.0001 1.8187 40.0001H38.1826C39.1873 40.0001 40.0013 39.1861 40.0013 38.1822C40.0004 37.1767 39.1864 36.3627 38.1834 36.3627Z" fill="white"/>
<path d="M4.09117 31.6346C3.08645 31.6346 2.27246 32.4485 2.27246 33.4533C2.27246 34.458 3.08645 35.2728 4.09117 35.2728H35.91C36.9147 35.2728 37.7287 34.458 37.7287 33.4533C37.7287 32.4485 36.9147 31.6346 35.91 31.6346H35.4562V15.2696H35.91C36.4132 15.2696 36.8185 14.8626 36.8185 14.3611C36.8185 13.8596 36.4115 13.4526 35.91 13.4526H4.09117C3.58881 13.4526 3.18266 13.8596 3.18266 14.3611C3.18266 14.8626 3.58966 15.2696 4.09117 15.2696H4.54584V31.6337H4.09117V31.6346ZM31.8187 15.2696V31.6337H26.3643V15.2696H31.8187ZM22.7269 15.2696V31.6337H17.2725V15.2696H22.7269ZM8.18155 15.2696H13.636V31.6337H8.18155V15.2696Z" fill="white"/>
<path d="M1.81874 11.8177H38.1826C38.1886 11.8177 38.1954 11.8177 38.2005 11.8177C39.2061 11.8177 40.0192 11.0038 40.0192 9.99904C40.0192 9.20038 39.5049 8.52347 38.7905 8.27826L20.7482 0.159648C20.274 -0.0532158 19.7316 -0.0532158 19.2565 0.159648L1.07287 8.34126C0.29038 8.69376 -0.139604 9.54352 0.0409043 10.3813C0.220561 11.2192 0.961325 11.8177 1.81874 11.8177Z" fill="white"/>
</svg>
