<svg width="43" height="40" viewBox="0 0 43 40" fill="none" xmlns="http://www.w3.org/2000/svg">
<path d="M0 4.9331C0 8.22187 5.66998 9.94265 11.2715 9.94265C16.873 9.94265 22.543 8.22187 22.543 4.9331C22.543 -1.64437 0 -1.64437 0 4.9331Z" fill="white"/>
<path d="M11.2715 12.4474C7.21802 12.4474 0 11.2599 0 7.43787V9.94264C0 13.2239 5.6608 14.9522 11.2715 14.9522C16.8822 14.9522 22.543 13.2239 22.543 9.94264V7.43787C22.543 11.2563 15.359 12.4474 11.2715 12.4474Z" fill="white"/>
<path d="M11.2715 22.4665C5.6608 22.4665 0 20.7382 0 17.457V19.9617C0 23.243 5.6608 24.9713 11.2715 24.9713C16.8822 24.9713 22.543 23.243 22.543 19.9617V17.457C22.543 20.7382 16.8822 22.4665 11.2715 22.4665Z" fill="white"/>
<path d="M11.2715 27.4761C5.6608 27.4761 0 25.7478 0 22.4665V24.9713C0 28.2526 5.6608 29.9809 11.2715 29.9809C16.8822 29.9809 22.543 28.2526 22.543 24.9713V22.4665C22.543 25.7478 16.8822 27.4761 11.2715 27.4761Z" fill="white"/>
<path d="M11.2715 32.4856C5.6608 32.4856 0 30.7573 0 27.4761V29.9809C0 33.2621 5.6608 34.9904 11.2715 34.9904C16.8822 34.9904 22.543 33.2621 22.543 29.9809V27.4761C22.543 30.7573 16.8822 32.4856 11.2715 32.4856Z" fill="white"/>
<path d="M11.2715 37.4952C5.6608 37.4952 0 35.7669 0 32.4857V34.9904C0 38.2717 5.6608 40 11.2715 40C16.8822 40 22.543 38.2717 22.543 34.9904V32.4857C22.543 35.7669 16.8822 37.4952 11.2715 37.4952Z" fill="white"/>
<path d="M11.2715 17.457C5.6608 17.457 0 15.7287 0 12.4474V14.9522C0 18.7743 7.21802 19.9618 11.2715 19.9618C16.1306 19.9618 21.0151 18.6592 22.2424 16.2046C22.4427 15.8289 22.543 15.4031 22.543 14.9522V12.4474C22.543 15.7287 16.8822 17.457 11.2715 17.457Z" fill="white"/>
<path d="M31.3092 37.4952C29.0038 37.4952 26.7124 37.1876 24.7862 36.616C24.537 37.3953 24.1061 38.0899 23.5332 38.7079C25.6539 39.5607 28.4862 40 31.3093 40C36.92 40 42.7478 38.2717 42.7478 34.9904V32.4857C42.7477 35.7669 36.9199 37.4952 31.3092 37.4952Z" fill="white"/>
<path d="M31.3098 27.4761C29.1077 27.4761 26.9176 27.1951 25.0479 26.674C25.0479 28.0814 25.0479 27.7789 25.0479 29.1865C26.9182 29.7065 29.1114 29.981 31.3098 29.981C36.9205 29.981 42.7483 28.2527 42.7483 24.9714V22.4666C42.7483 26.2886 35.3633 27.4761 31.3098 27.4761Z" fill="white"/>
<path d="M31.3098 32.4856C29.101 32.4856 26.9222 32.1878 25.0479 31.6612C25.0479 32.5894 25.0479 32.0273 25.0479 34.1786C26.9148 34.7057 29.1023 34.9904 31.3098 34.9904C35.3973 34.9904 42.7483 33.7992 42.7483 29.9809V27.4761C42.7483 30.7573 36.9205 32.4856 31.3098 32.4856Z" fill="white"/>
<path d="M25.0479 15.8048V24.1409C26.9185 24.6728 29.0979 24.9713 31.3098 24.9713C36.9113 24.9713 42.7483 23.2505 42.7483 19.9618C42.7483 15.3826 31.681 14.005 25.0479 15.8048Z" fill="white"/>
</svg>
