<svg width="40" height="40" viewBox="0 0 40 40" fill="none" xmlns="http://www.w3.org/2000/svg">
<path d="M21.2344 13.7936C20.835 13.7143 20.4224 13.6719 20 13.6719C16.5106 13.6719 13.6719 16.5106 13.6719 20C13.6719 23.4894 16.5106 26.3281 20 26.3281C23.4894 26.3281 26.3281 23.4894 26.3281 20C26.3281 19.5776 26.2857 19.165 26.2064 18.7656L22.486 22.486C21.8219 23.15 20.939 23.5156 20 23.5156C19.061 23.5156 18.1781 23.15 17.514 22.486C16.85 21.8219 16.4844 20.939 16.4844 20C16.4844 19.061 16.85 18.1781 17.514 17.514L21.2344 13.7936Z" fill="white"/>
<path d="M38.2101 11.7334L35.6888 14.2548C35.4364 14.5071 35.152 14.7165 34.845 14.8788C35.4004 16.485 35.7031 18.2077 35.7031 20C35.7031 28.6588 28.6588 35.7031 20 35.7031C11.3412 35.7031 4.29688 28.6588 4.29688 20C4.29688 11.3412 11.3412 4.29688 20 4.29688C21.7929 4.29688 23.5165 4.59991 25.123 5.15564C25.2856 4.84833 25.4935 4.56268 25.7455 4.31091L28.2666 1.78986C25.7455 0.640869 22.9465 0 20 0C8.97186 0 0 8.97186 0 20C0 31.0281 8.97186 40 20 40C31.0281 40 40 31.0281 40 20C40 17.0535 39.3591 14.2545 38.2101 11.7334Z" fill="white"/>
<path d="M24.9774 10.0507L24.7638 7.51892C23.2834 6.9516 21.6776 6.64062 20 6.64062C12.6337 6.64062 6.64062 12.6337 6.64062 20C6.64062 27.3663 12.6337 33.3594 20 33.3594C27.3663 33.3594 33.3594 27.3663 33.3594 20C33.3594 18.3224 33.0484 16.7166 32.4811 15.2362L29.9493 15.0226L28.0911 16.8805C28.4659 17.8491 28.6719 18.9008 28.6719 20C28.6719 24.7818 24.7818 28.6719 20 28.6719C15.2182 28.6719 11.3281 24.7818 11.3281 20C11.3281 15.2182 15.2182 11.3281 20 11.3281C21.0992 11.3281 22.1509 11.5341 23.1195 11.9089L24.9774 10.0507Z" fill="white"/>
<path d="M27.0633 6.89545L27.4045 10.9384L19.1714 19.1714C18.7137 19.6289 18.7137 20.3711 19.1714 20.8286C19.4 21.0574 19.7 21.1719 20 21.1719C20.3 21.1719 20.6 21.0574 20.8286 20.8286L29.0616 12.5955L33.1046 12.9364C33.1375 12.9391 33.1702 12.9407 33.2031 12.9407C33.5126 12.9407 33.811 12.818 34.0317 12.5973L39.0033 7.62543C39.3259 7.30316 39.4321 6.82281 39.2755 6.39435C39.1187 5.96588 38.7277 5.66742 38.2733 5.62927L34.6741 5.32562L34.3707 1.72668C34.3323 1.27197 34.0338 0.881042 33.6057 0.724487C33.1772 0.567626 32.6968 0.674133 32.3743 0.996398L27.4026 5.96832C27.1585 6.21246 27.0343 6.55151 27.0633 6.89545Z" fill="white"/>
</svg>
