<svg width="40" height="40" viewBox="0 0 40 40" fill="none" xmlns="http://www.w3.org/2000/svg">
<path d="M38.8282 37.6563H37.6465V10.5859C37.6465 9.93871 37.1219 9.41402 36.4747 9.41402H31.7676C31.1204 9.41402 30.5958 9.93871 30.5958 10.5859V37.6563H28.2325V15.2929C28.2325 14.6457 27.7078 14.1211 27.0606 14.1211H22.3536C21.7064 14.1211 21.1817 14.6457 21.1817 15.2929V37.6563H18.8184V20C18.8184 19.3528 18.2937 18.8281 17.6465 18.8281H12.9395C12.2923 18.8281 11.7676 19.3528 11.7676 20V37.6563H9.40431V24.707C9.40431 24.0598 8.87962 23.5351 8.23244 23.5351H3.5254C2.87821 23.5351 2.35352 24.0598 2.35352 24.707V37.6563H1.17188C0.524688 37.6563 0 38.1809 0 38.8281C0 39.4753 0.524688 40 1.17188 40H38.8282C39.4754 40 40.0001 39.4753 40.0001 38.8281C40.0001 38.1809 39.4754 37.6563 38.8282 37.6563Z" fill="white"/>
<path d="M1.17054 16.465C1.20906 16.465 1.24804 16.4631 1.28718 16.4592C7.274 15.8675 12.8857 14.7453 17.9661 13.1236C22.0469 11.821 25.7981 10.1945 29.1153 8.28917C31.936 6.66901 33.962 5.12447 35.3028 3.96072V5.87893C35.3028 6.52612 35.8275 7.05081 36.4747 7.05081C37.1219 7.05081 37.6466 6.52612 37.6466 5.87893V1.17188C37.6466 0.524689 37.1219 0 36.4747 0H31.7677C31.1205 0 30.5958 0.524689 30.5958 1.17188C30.5958 1.81907 31.1205 2.34376 31.7677 2.34376H33.583C32.32 3.42087 30.4247 4.84572 27.8135 6.3337C22.8269 9.17535 14.1371 12.8341 1.05671 14.1268C0.412647 14.1904 -0.0579017 14.7641 0.0057704 15.4082C0.0655362 16.0132 0.575147 16.465 1.17054 16.465Z" fill="white"/>
</svg>
