<svg width="26" height="25" viewBox="0 0 26 25" fill="none" xmlns="http://www.w3.org/2000/svg">
<path d="M25.7049 11.4725L15.1225 0.820517C15.109 0.806807 15.0949 0.793502 15.0806 0.780603C13.9251 -0.256908 12.179 -0.260615 11.019 0.772021C11.0046 0.784869 10.9906 0.798123 10.9769 0.811732L0.298182 11.4694C-0.0988261 11.8657 -0.0994863 12.5088 0.29676 12.9058C0.693057 13.3028 1.3361 13.3034 1.73306 12.9072L2.53906 12.1028V20.8719C2.53906 23.112 4.36149 24.9344 6.60156 24.9344H10.2578C10.8187 24.9344 11.2734 24.4797 11.2734 23.9188V15.6414H14.8281V23.9188C14.8281 24.4797 15.2828 24.9344 15.8437 24.9344H19.3984C21.6385 24.9344 23.4609 23.112 23.4609 20.8719C23.4609 20.311 23.0062 19.8563 22.4453 19.8563C21.8844 19.8563 21.4297 20.311 21.4297 20.8719C21.4297 21.9919 20.5185 22.9031 19.3984 22.9031H16.8594V14.6258C16.8594 14.0649 16.4047 13.6102 15.8437 13.6102H10.2578C9.69688 13.6102 9.24218 14.0649 9.24218 14.6258V22.9031H6.60156C5.48152 22.9031 4.57031 21.9919 4.57031 20.8719V10.1063C4.57031 10.0961 4.57015 10.086 4.56985 10.076L12.3879 2.27337C12.7684 1.95025 13.3265 1.95147 13.7055 2.27616L21.4297 10.0513V15.7938C21.4297 16.3547 21.8844 16.8094 22.4453 16.8094C23.0062 16.8094 23.4609 16.3547 23.4609 15.7938V12.0959L24.2639 12.9042C24.4624 13.104 24.7233 13.204 24.9844 13.204C25.2432 13.204 25.5021 13.1056 25.7002 12.9088C26.0981 12.5135 26.1002 11.8705 25.7049 11.4725Z" fill="white"/>
</svg>
