<svg width="22" height="22" viewBox="0 0 22 22" fill="none" xmlns="http://www.w3.org/2000/svg">
<path d="M11.0001 3.84203C12.7481 3.84203 14.3515 4.47223 15.5958 5.5169L18.3217 2.791C16.3041 0.986969 13.7281 0 11.0001 0C8.06182 0 5.29948 1.14423 3.22185 3.22181C2.02422 4.41948 1.1375 5.84497 0.600586 7.40018L4.31345 8.44601C5.34414 5.75664 7.95249 3.84203 11.0001 3.84203Z" fill="white"/>
<path d="M11 5.13281C7.76483 5.13281 5.13281 7.76483 5.13281 11C5.13281 14.2352 7.76483 16.8672 11 16.8672C14.2352 16.8672 16.8672 14.2352 16.8672 11C16.8672 7.76483 14.2353 5.13281 11 5.13281ZM11.8876 14.2504H11.6439V15.1692H10.3531V14.2504H8.81006V12.9596H11.8876C12.2482 12.9596 12.5416 12.6663 12.5416 12.3056C12.5416 11.945 12.2482 11.6516 11.8876 11.6516H10.4594C9.41491 11.6516 8.56515 10.8019 8.56515 9.75736C8.56515 8.74853 9.3579 7.92157 10.3532 7.86624V6.94428H11.644V7.86306H12.8707V9.15383H10.4595C10.1267 9.15383 9.85597 9.42455 9.85597 9.75731C9.85597 10.0901 10.1267 10.3608 10.4595 10.3608H11.8876C12.96 10.3608 13.8324 11.2332 13.8324 12.3056C13.8324 13.378 12.9599 14.2504 11.8876 14.2504Z" fill="white"/>
<path d="M18.1573 11C18.1573 13.4522 16.9176 15.6201 15.0322 16.9106L16.9183 20.2757C17.5827 19.85 18.2061 19.3496 18.7775 18.7782C20.8551 16.7006 21.9993 13.9383 21.9993 11.0001C21.9993 8.28407 21.0209 5.71883 19.2321 3.70526L16.5057 6.43172C17.5366 7.67211 18.1573 9.26488 18.1573 11Z" fill="white"/>
<path d="M11 18.158C7.05309 18.158 3.84203 14.947 3.84203 11C3.84203 10.5521 3.88381 10.1137 3.96293 9.68831L0.25226 8.64313C0.0859225 9.40881 0 10.1978 0 11C0 13.9382 1.14423 16.7006 3.22181 18.7782C5.29944 20.8558 8.06179 22 11 22C12.6879 22 14.3174 21.6217 15.7927 20.9065L13.9064 17.5408C13.0178 17.9372 12.0343 18.158 11 18.158Z" fill="white"/>
</svg>
