<svg width="8" height="13" viewBox="0 0 8 13" fill="none" xmlns="http://www.w3.org/2000/svg">
<path d="M0.556641 9.98212C1.4084 11.8003 2.95378 13 3.94592 13C4.93815 13 6.48353 11.8003 7.33529 9.98212H0.556641Z" fill="white"/>
<path d="M7.60294 9.31335C7.62616 9.24362 7.65164 9.17406 7.67249 9.10442C7.70178 9.00622 7.72482 8.90846 7.74821 8.81053C7.76354 8.74632 7.78149 8.6823 7.79473 8.61846C7.81622 8.51037 7.83091 8.40283 7.84524 8.29537C7.85231 8.24241 7.86292 8.18927 7.86854 8.13659C7.8846 7.97844 7.89276 7.81957 7.89285 7.6607C7.89285 7.48169 7.88577 7.30559 7.87408 7.13194C7.87054 7.07662 7.86428 7.02303 7.85966 6.96935C7.85249 6.88955 7.84297 6.8112 7.83345 6.73303H0.0592145C0.0498744 6.81084 0.0403529 6.88855 0.0334612 6.96799C0.0285644 7.02303 0.0223981 7.07707 0.0188616 7.13284C0.00716378 7.30577 0 7.48169 0 7.6607C0.000362723 7.81957 0.00888672 7.97853 0.0252999 8.13659C0.0306501 8.18945 0.0414411 8.24305 0.0485142 8.29628C0.0629324 8.40355 0.0773506 8.51083 0.098842 8.61874C0.111719 8.68258 0.129855 8.74696 0.145361 8.81125C0.168575 8.90891 0.19179 9.0064 0.220807 9.10442C0.241483 9.17406 0.267236 9.24362 0.29045 9.31335C0.313665 9.3829 0.336879 9.44964 0.363358 9.51765H7.52985C7.55552 9.44964 7.57991 9.38163 7.60294 9.31335V9.31335Z" fill="white"/>
<path d="M3.71484 0H4.17913V4.17857H3.71484V0Z" fill="white"/>
<path d="M1.31272 0H0.463678V2.4005L1.79478 2.97161C1.87304 3.00525 1.92654 3.07897 1.93434 3.16367C1.94214 3.24836 1.90296 3.33061 1.83223 3.37786C0.956347 3.96266 0.373814 4.96114 0.129883 6.26785H7.76157C7.51764 4.96069 6.93538 3.96238 6.05949 3.37786C5.98876 3.33061 5.94959 3.24836 5.95739 3.16367C5.96519 3.07897 6.01869 3.00525 6.09694 2.97161L7.42796 2.4005V0H6.579L4.64224 1.5063V4.41071C4.64224 4.53893 4.53832 4.64285 4.4101 4.64285H3.48153C3.3534 4.64285 3.24939 4.53893 3.24939 4.41071V1.5063L1.31272 0Z" fill="white"/>
</svg>
