<svg width="14" height="13" viewBox="0 0 14 13" fill="none" xmlns="http://www.w3.org/2000/svg">
<path d="M8.03664 2.17273L0.876338 9.33355C0.840315 9.36967 0.814304 9.4153 0.801917 9.46432L0.0082667 12.6499C-0.0154737 12.7458 0.0127051 12.8477 0.0826876 12.9177C0.135639 12.9707 0.207789 13 0.281591 13C0.304196 13 0.327317 12.9972 0.349818 12.9915L3.53536 12.1978C3.58501 12.1854 3.63012 12.1595 3.66614 12.1235L10.8271 4.96315L8.03664 2.17273Z" fill="white"/>
<path d="M12.6016 1.1964L11.8046 0.399341C11.2719 -0.133372 10.3434 -0.132856 9.81131 0.399341L8.83496 1.37569L11.6253 4.16601L12.6016 3.18966C12.8677 2.92366 13.0143 2.56962 13.0143 2.19308C13.0143 1.81654 12.8677 1.4625 12.6016 1.1964Z" fill="white"/>
</svg>
