<svg width="14" height="14" viewBox="0 0 14 14" fill="none" xmlns="http://www.w3.org/2000/svg">
<path d="M13.5031 1.93126C13.2023 1.90384 12.9363 2.12546 12.9088 2.42624L12.8364 3.2211C11.607 1.29046 9.47302 0 7.00035 0C4.34032 0 1.99611 1.51818 0.832418 3.79679C0.695043 4.06577 0.801738 4.39518 1.07072 4.53256C1.33975 4.66993 1.66911 4.56326 1.80648 4.29426C2.79133 2.36586 4.76902 1.09375 7.00035 1.09375C9.0341 1.09375 10.8695 2.1528 11.9209 3.81194L11.1412 3.25503C10.8954 3.07951 10.5538 3.13644 10.3783 3.38221C10.2028 3.628 10.2597 3.96952 10.5055 4.14507L12.87 5.83385C13.2166 6.0809 13.6946 5.85474 13.7325 5.43848L13.998 2.52555C14.0255 2.22474 13.8039 1.95869 13.5031 1.93126Z" fill="white"/>
<path d="M12.9296 9.46745C12.6606 9.33011 12.3312 9.43677 12.1938 9.70575C11.209 11.6341 9.23131 12.9063 6.99997 12.9063C4.96623 12.9063 3.13086 11.8472 2.07938 10.1881L2.85914 10.745C3.10494 10.9205 3.44646 10.8636 3.62201 10.6178C3.79753 10.372 3.7406 10.0305 3.49483 9.85494L1.13028 8.16616C0.787963 7.9216 0.306111 8.14098 0.26783 8.56153L0.00229435 11.4745C-0.0251314 11.7752 0.19649 12.0413 0.497244 12.0687C0.798408 12.0961 1.06411 11.8743 1.09151 11.5737L1.16397 10.7789C2.39329 12.7095 4.5273 14 6.99997 14C9.66 14 12.0042 12.4818 13.1679 10.2032C13.3053 9.93424 13.1986 9.60483 12.9296 9.46745Z" fill="white"/>
</svg>
